<?xml version="1.0" encoding="UTF-8"?>
<svg id="Warstwa_1" xmlns="http://www.w3.org/2000/svg" version="1.1" viewBox="0 0 328 100">
  <!-- Generator: Adobe Illustrator 29.4.0, SVG Export Plug-In . SVG Version: 2.1.0 Build 152)  -->
  <defs>
    <style>
      .st0 {
        fill: #111;
      }

      .st1 {
        fill: #04948d;
      }

      .st2 {
        fill: #d7da2b;
      }
    </style>
  </defs>
  <polygon class="st1" points=".493709 98.8253 41.578384 28.537193 49.68428 42.195072 41.578384 55.96399 57.901215 55.96399 65.89607 70.843305 32.695211 70.843305 16.816539 98.8253 .493709 98.8253"/>
  <path class="st1" d="M115.197762,98.8253H33.694541l8.216962-14.213077h49.634729L50.017399,12.991641,58.123294,0l57.074468,98.8253Z"/>
  <path class="st2" d="M99.208051,62.293249"/>
  <g>
    <path class="st0" d="M145.191894,2.853655h4.372147l9.238651,21.710361h-4.958609l-1.96991-4.83455h-9.115532l-1.97085,4.83455h-4.83455l9.238651-21.710361ZM150.180578,15.541529l-2.86464-6.990548-2.8637,6.990548h5.72834Z"/>
    <path class="st0" d="M164.470882,3.00779h4.741505v9.42286l8.684144-9.42286h5.821384l-8.808203,9.145607,9.176622,12.410619h-5.696385l-6.68322-9.176622-2.494342,2.586446v6.590175h-4.741505V3.00779Z"/>
    <path class="st0" d="M196.067445,2.853655h4.372147l9.238651,21.710361h-4.956729l-1.971789-4.83455h-9.114592l-1.971789,4.83455h-4.83455l9.238651-21.710361ZM201.056129,15.541529l-2.8637-6.990548-2.8637,6.990548h5.7274Z"/>
    <path class="st0" d="M215.347373,3.00779h8.405951c6.776264,0,11.456679,4.649871,11.456679,10.716084v.06203c0,6.066683-4.680415,10.778113-11.456679,10.778113h-8.405951V3.00779ZM220.089818,7.288302v12.995671h3.663506c3.849595,0,6.498071-2.618401,6.498071-6.436041v-.06203c0-3.81858-2.648476-6.497601-6.498071-6.497601h-3.663506Z"/>
    <path class="st0" d="M241.770104,3.00779h16.259274v4.218953h-11.548784v4.373087h10.163456v4.218953h-10.163456v4.526281h11.702918v4.218953h-16.413408V3.00779Z"/>
    <path class="st0" d="M264.743612,3.00779h5.112743l5.66537,9.115532,5.66725-9.115532h5.110863v21.556226h-4.71049v-14.073201l-6.067623,9.207636h-.12218l-6.005593-9.115532v13.981096h-4.65034V3.00779Z"/>
    <path class="st0" d="M294.032862,3.00779h4.742445v21.556226h-4.742445V3.00779Z"/>
    <path class="st0" d="M313.895493,2.853655h4.374027l9.236772,21.710361h-4.956729l-1.971789-4.83455h-9.114592l-1.96991,4.83455h-4.836429l9.238651-21.710361ZM318.884176,15.541529l-2.86276-6.990548-2.86464,6.990548h5.7274Z"/>
  </g>
  <g>
    <path class="st0" d="M137.800973,40.541338h4.742445v17.244699h10.747098v4.311057h-15.489543v-21.555756Z"/>
    <path class="st0" d="M159.204945,40.541338h16.259274v4.218953h-11.548784v4.373087h10.162516v4.218483h-10.162516v4.526281h11.702918v4.218953h-16.413408v-21.555756Z"/>
    <path class="st0" d="M182.178454,40.541338h4.742445v9.42286l8.684144-9.42286h5.819504l-8.806324,9.145607,9.176622,12.41015h-5.697325l-6.68228-9.176622-2.494342,2.586446v6.590175h-4.742445v-21.555756Z"/>
    <path class="st0" d="M213.775957,40.387203h4.372147l9.238651,21.709891h-4.958609l-1.96991-4.83455h-9.114592l-1.971789,4.83455h-4.83455l9.238651-21.709891ZM218.76464,53.074607l-2.86464-6.990078-2.86276,6.990078h5.7274Z"/>
    <path class="st0" d="M233.054005,40.541338h9.855188c2.740581,0,4.83455.739186,6.281907,2.186543,1.231194,1.231664,1.84773,2.8637,1.84773,4.927124v.06109c0,3.480237-1.877805,5.66584-4.618386,6.68275l5.264997,7.698249h-5.543191l-4.618386-6.898444h-3.727415v6.898444h-4.742445v-21.555756ZM242.600924,51.011182c2.340208,0,3.633431-1.200179,3.633431-3.047909v-.06203c0-2.062954-1.385328-3.079394-3.725535-3.079394h-4.71237v6.189332h4.804475Z"/>
    <path class="st0" d="M257.014348,58.493738l11.855173-13.795007h-11.486754v-4.157393h17.584452v3.602886l-11.855173,13.795947h11.855173v4.156923h-17.95287v-3.603356Z"/>
    <path class="st0" d="M289.196433,40.387203h4.372147l9.238651,21.709891h-4.958609l-1.96991-4.83455h-9.114592l-1.971789,4.83455h-4.83455l9.238651-21.709891ZM294.185117,53.074607l-2.86464-6.990078-2.86276,6.990078h5.7274Z"/>
  </g>
  <g>
    <path class="st0" d="M136.846093,88.914558v-.06203c0-6.127773,4.83455-11.147471,11.486754-11.147471,6.651265,0,11.424725,4.957669,11.424725,11.085442v.06203c0,6.127773-4.83455,11.147471-11.486754,11.147471s-11.424725-4.957669-11.424725-11.085442ZM154.798963,88.914558v-.06203c0-3.69546-2.709566-6.774384-6.528146-6.774384s-6.466116,3.017834-6.466116,6.712355v.06203c0,3.69546,2.708626,6.774384,6.528146,6.774384,3.81764,0,6.466116-3.017834,6.466116-6.712355Z"/>
    <path class="st0" d="M166.318612,78.074416h4.373087l10.099547,13.272455v-13.272455h4.681355v21.556226h-4.034744l-10.43883-13.703843v13.703843h-4.680415v-21.556226Z"/>
    <path class="st0" d="M204.56738,78.074416h4.742445v17.245169h10.746159v4.311057h-15.488604v-21.556226Z"/>
    <path class="st0" d="M226.185636,78.074416h4.742445v21.556226h-4.742445v-21.556226Z"/>
    <path class="st0" d="M238.659225,78.074416h4.372147l10.101427,13.272455v-13.272455h4.680415v21.556226h-4.033804l-10.43977-13.703843v13.703843h-4.680415v-21.556226Z"/>
    <path class="st0" d="M265.328194,78.074416h16.261154v4.218953h-11.548784v4.373087h10.161577v4.218953h-10.161577v4.526281h11.701038v4.218953h-16.413408v-21.556226Z"/>
  </g>
</svg>